<?xml version="1.0" encoding="utf-8"?>
<!-- Generator: Adobe Illustrator 16.0.0, SVG Export Plug-In . SVG Version: 6.00 Build 0)  -->
<!DOCTYPE svg PUBLIC "-//W3C//DTD SVG 1.1//EN" "http://www.w3.org/Graphics/SVG/1.1/DTD/svg11.dtd">
<svg version="1.1" id="Layer_1" xmlns="http://www.w3.org/2000/svg" xmlns:xlink="http://www.w3.org/1999/xlink" x="0px" y="0px"
	 width="55px" height="55px" viewBox="0 0 55 55" enable-background="new 0 0 55 55" xml:space="preserve">
<rect x="2" y="1.744" fill="#FFFFFF" width="51.25" height="51"/>
<g>
	<g>
		<path d="M55,0L55,0H0v55h54.999H55V0z M50.854,50.855H4.145V4.144h46.71V50.855z"/>
	</g>
	<g>
		<g>
			<path d="M38.493,31.667c-0.205-1.111-0.52-2.018-0.943-2.72c-0.643-1.038-1.426-1.732-2.346-2.083
				c0.555-0.248,1.037-0.607,1.447-1.075c0.979-1.11,1.469-2.587,1.469-4.43c0-1.126-0.131-2.097-0.395-2.917
				c-0.482-1.535-1.286-2.667-2.412-3.398c-1.316-0.862-2.793-1.294-4.43-1.294H9.949v4.167h6.339v23.311h4.145V17.917l10.41,0.002
				c0.818,0,1.525,0.313,2.036,0.854c0.556,0.584,0.833,1.447,0.833,2.587c0,0.688-0.08,1.265-0.24,1.733
				c-0.439,1.257-1.302,1.885-2.588,1.885h-5.592v3.97h5.592c1.023,0,1.798,0.322,2.324,0.965c0.584,0.702,0.877,1.82,0.877,3.355
				c0,0.644-0.095,1.214-0.285,1.71c-0.541,1.447-1.513,2.172-2.916,2.172h-1.732l-4.572,0.002v4.099h7.773
				c1.038,0,2.084-0.321,3.137-0.965c0.935-0.569,1.659-1.331,2.17-2.281c0.658-1.214,0.988-2.689,0.988-4.429
				C38.647,32.873,38.595,32.237,38.493,31.667z"/>
		</g>
		<rect x="40.905" y="37.105" width="4.145" height="4.145"/>
	</g>
</g>
</svg>
